<svg xmlns="http://www.w3.org/2000/svg" viewBox="0 0 600 400" width="600" height="400">
  
  <defs>
    <linearGradient id="warm" x1="0" y1="0" x2="0" y2="1">
      <stop offset="0%" stop-color="#EFE6D6"></stop>
      <stop offset="100%" stop-color="#C9A07A"></stop>
    </linearGradient>
    <radialGradient id="light" cx="40%" cy="30%" r="70%">
      <stop offset="0%" stop-color="#FFF7EA" stop-opacity="0.9"></stop>
      <stop offset="100%" stop-color="#FFF7EA" stop-opacity="0"></stop>
    </radialGradient>
  </defs>
  <rect width="600" height="400" fill="url(#warm)"></rect>
  <rect width="600" height="400" fill="url(#light)"></rect>
  
  <g transform="translate(300,250)" fill="#1F2E3D" opacity="0.85">
    
    <ellipse cx="0" cy="0" rx="110" ry="52"></ellipse>
    
    <ellipse cx="90" cy="-40" rx="42" ry="38"></ellipse>
    
    <ellipse cx="72" cy="-66" rx="14" ry="28" transform="rotate(-18 72 -66)"></ellipse>
    
    <ellipse cx="122" cy="-30" rx="22" ry="14"></ellipse>
    
    <rect x="-80" y="30" width="20" height="50" rx="8"></rect>
    <rect x="-30" y="30" width="20" height="50" rx="8"></rect>
    <rect x="40" y="30" width="20" height="50" rx="8"></rect>
    <rect x="80" y="30" width="20" height="50" rx="8"></rect>
    
    <path d="M -105 -10 Q -140 -50 -125 -70" stroke="#1F2E3D" stroke-width="14" stroke-linecap="round" fill="none"></path>
  </g>
  
  <text x="20" y="390" font-family="Inter, sans-serif" font-size="10" fill="#1F2E3D" opacity="0.5">Placeholder — replace with real salon photography</text>
</svg>